<?xml version="1.0" encoding="UTF-8" standalone="no"?>
<svg
   xmlns:dc="http://purl.org/dc/elements/1.1/"
   xmlns:cc="http://creativecommons.org/ns#"
   xmlns:rdf="http://www.w3.org/1999/02/22-rdf-syntax-ns#"
   xmlns:svg="http://www.w3.org/2000/svg"
   xmlns="http://www.w3.org/2000/svg"
   xmlns:sodipodi="http://sodipodi.sourceforge.net/DTD/sodipodi-0.dtd"
   xmlns:inkscape="http://www.inkscape.org/namespaces/inkscape"
   width="100mm"
   height="30mm"
   viewBox="0 0 100 30"
   version="1.1"
   id="svg16"
   sodipodi:docname="eastboy.svg"
   inkscape:version="0.92.3 (2405546, 2018-03-11)">
  <sodipodi:namedview
     pagecolor="#ffffff"
     bordercolor="#666666"
     borderopacity="1"
     objecttolerance="10"
     gridtolerance="10"
     guidetolerance="10"
     inkscape:pageopacity="0"
     inkscape:pageshadow="2"
     inkscape:window-width="1920"
     inkscape:window-height="1015"
     id="namedview14"
     showgrid="false"
     inkscape:zoom="2.0813889"
     inkscape:cx="151.1811"
     inkscape:cy="56.692913"
     inkscape:window-x="0"
     inkscape:window-y="0"
     inkscape:window-maximized="1"
     inkscape:current-layer="svg16" />
  <defs
     id="defs10" />
  <metadata
     id="metadata13">
    <rdf:RDF>
      <cc:Work
         rdf:about="">
        <dc:format>image/svg+xml</dc:format>
        <dc:type
           rdf:resource="http://purl.org/dc/dcmitype/StillImage" />
        <dc:title></dc:title>
      </cc:Work>
    </rdf:RDF>
  </metadata>
  <g
     id="layer1"
     transform="translate(10.932203,-268.52543)">
    <g
       id="flowRoot18"
       style="font-style:normal;font-weight:normal;font-size:40px;line-height:1.25;font-family:sans-serif;letter-spacing:0px;word-spacing:0px;fill:#000000;fill-opacity:1;stroke:none"
       transform="matrix(0.26458333,0,0,0.41054609,-3.2072339,165.08992)"
       aria-label="EAST BOY">
      <path
         id="path14"
         style="font-style:normal;font-variant:normal;font-weight:normal;font-stretch:normal;font-size:48px;font-family:'Latin Modern Roman Caps';-inkscape-font-specification:'Latin Modern Roman Caps, Normal';font-variant-ligatures:normal;font-variant-caps:normal;font-variant-numeric:normal;font-feature-settings:normal;text-align:start;writing-mode:lr-tb;text-anchor:start"
         d="m 73.504,291.96611 h -1.2 c -1.2,7.344 -2.352,10.896 -10.848,10.896 h -7.248 c -2.256,0 -2.352,-0.336 -2.352,-1.92 v -12.816 h 4.704 c 4.752,0 5.424,1.44 5.424,5.616 h 1.2 v -12.72 h -1.2 c 0,4.176 -0.672,5.616 -5.424,5.616 h -4.704 v -11.52 c 0,-1.584 0.096,-1.92 2.352,-1.92 h 6.864 c 7.536,0 9.072,2.448 9.84,9.312 h 1.2 l -1.344,-10.8 H 42.64 v 1.488 h 1.152 c 3.696,0 3.792,0.528 3.792,2.256 v 25.152 c 0,1.728 -0.096,2.256 -3.792,2.256 H 42.64 v 1.488 h 28.848 z"
         inkscape:connector-curvature="0" />
      <path
         id="path16"
         style="font-style:normal;font-variant:normal;font-weight:normal;font-stretch:normal;font-size:40px;font-family:'Latin Modern Roman Caps';-inkscape-font-specification:'Latin Modern Roman Caps, Normal';font-variant-ligatures:normal;font-variant-caps:normal;font-variant-numeric:normal;font-feature-settings:normal;text-align:start;writing-mode:lr-tb;text-anchor:start"
         d="m 106.225,304.35011 v -1.24 h -0.72 c -2.56,0 -2.96,-0.36 -3.36,-1.48 l -9.28,-25.04 c -0.28,-0.72 -0.32,-0.88 -1,-0.88 -0.64,0 -0.72,0.24 -0.92,0.76 l -8.84,23.88 c -0.36,0.92 -1,2.72 -4.56,2.76 v 1.24 c 0.84,-0.04 2.44,-0.12 4.04,-0.12 l 4.64,0.12 v -1.24 c -2.04,0 -2.96,-1.04 -2.96,-2 0,-0.24 0,-0.32 0.2,-0.8 l 1.92,-5.2 h 10.64 l 2.28,6.12 c 0.2,0.52 0.2,0.6 0.2,0.72 0,1.16 -2.24,1.16 -3.28,1.16 v 1.24 c 1.44,-0.12 4.24,-0.12 5.76,-0.12 z m -10.64,-10.48 h -9.76 l 4.88,-13.2 z"
         inkscape:connector-curvature="0" />
      <path
         id="path18"
         style="font-style:normal;font-variant:normal;font-weight:normal;font-stretch:normal;font-size:40px;font-family:'Latin Modern Roman Caps';-inkscape-font-specification:'Latin Modern Roman Caps, Normal';font-variant-ligatures:normal;font-variant-caps:normal;font-variant-numeric:normal;font-feature-settings:normal;text-align:start;writing-mode:lr-tb;text-anchor:start"
         d="m 129.72312,296.95011 c 0,-3.2 -1.92,-7 -6.31999,-8.08 l -5.44,-1.32 c -3.48,-0.84 -4.32001,-3.6 -4.32001,-5.04 0,-2.72 2.28001,-5.24 5.68001,-5.24 5.52,0 7.64,4.04 8.19999,8.12 0.08,0.52 0.08,0.72 0.52,0.72 0.52001,0 0.52001,-0.2 0.52001,-0.96 v -8.04 c 0,-0.68 0,-0.96 -0.44,-0.96 -0.28,0 -0.28,0.04 -0.60001,0.52 l -1.47999,2.36 c -1.08001,-1.08 -2.92,-2.88 -6.76001,-2.88 -4.64,0 -8.2,3.52 -8.2,7.76 0,2.56 1.36,4.36 1.88001,4.96 1.88,1.96 3.08,2.24 6.39999,3.04 0.64,0.16 1.32001,0.28 1.96001,0.44 2.36,0.56 3.16,0.76 4.39999,2.12 0.24001,0.28 1.44001,1.64 1.44001,3.8 0,2.84 -2.12,5.72 -5.76,5.72 -1.68001,0 -4.36,-0.32 -6.56,-2.04 -2.6,-2.04 -2.72,-4.96 -2.76001,-6.32 -0.04,-0.28 -0.28,-0.36 -0.47999,-0.36 -0.52001,0 -0.52001,0.28 -0.52001,1 v 8 c 0,0.68 0,0.96 0.44,0.96 0.28,0 0.36001,-0.12 0.60001,-0.48 l 1.48,-2.4 c 1.11999,1.16 3.72,2.88 7.83999,2.88 5.00001,0 8.28,-4.04 8.28,-8.28 z"
         inkscape:connector-curvature="0" />
      <path
         id="path20"
         style="font-style:normal;font-variant:normal;font-weight:normal;font-stretch:normal;font-size:40px;font-family:'Latin Modern Roman Caps';-inkscape-font-specification:'Latin Modern Roman Caps, Normal';font-variant-ligatures:normal;font-variant-caps:normal;font-variant-numeric:normal;font-feature-settings:normal;text-align:start;writing-mode:lr-tb;text-anchor:start"
         d="m 161.97625,286.27011 -0.76,-9 h -25.72 l -0.76,9 h 1 c 0.56,-6.72 1.36,-7.76 7.64,-7.76 0.76,0 1.92,0 2.32,0.08 0.88,0.12 0.88,0.6 0.88,1.52 v 21.08 c 0,1.36 0,1.92 -4.2,1.92 h -1.6 v 1.24 c 1.64,-0.12 5.72,-0.12 7.56,-0.12 1.84,0 5.96,0 7.6,0.12 v -1.24 h -1.6 c -4.2,0 -4.2,-0.56 -4.2,-1.92 v -21.08 c 0,-0.92 0,-1.4 0.88,-1.52 0.4,-0.08 1.56,-0.08 2.32,-0.08 6.24,0 7.08,1.04 7.64,7.76 z"
         inkscape:connector-curvature="0" />
      <path
         id="path22"
         style="font-style:normal;font-variant:normal;font-weight:normal;font-stretch:normal;font-size:48px;font-family:'Latin Modern Roman Caps';-inkscape-font-specification:'Latin Modern Roman Caps, Normal';font-variant-ligatures:normal;font-variant-caps:normal;font-variant-numeric:normal;font-feature-settings:normal;text-align:start;writing-mode:lr-tb;text-anchor:start"
         d="m 212.72275,295.56611 c 0,-4.032 -3.888,-7.728 -9.792,-8.352 4.656,-0.864 8.4,-3.84 8.4,-7.536 0,-4.272 -4.752,-8.112 -11.184,-8.112 h -18.144 v 1.488 h 1.152 c 3.696,0 3.792,0.528 3.792,2.256 v 25.296 c 0,1.728 -0.096,2.256 -3.792,2.256 h -1.152 v 1.488 h 19.488 c 6.624,0 11.232,-4.272 11.232,-8.784 z m -6.048,-15.888 c 0,3.36 -2.832,7.104 -8.256,7.104 h -7.488 v -11.808 c 0,-1.584 0.096,-1.92 2.352,-1.92 h 6.528 c 4.896,0 6.864,3.936 6.864,6.624 z m 1.248,15.84 c 0,3.552 -2.88,7.344 -8.016,7.344 h -6.624 c -2.256,0 -2.352,-0.336 -2.352,-1.92 v -13.104 h 9.648 c 4.944,0 7.344,4.272 7.344,7.68 z"
         inkscape:connector-curvature="0" />
      <path
         id="path24"
         style="font-style:normal;font-variant:normal;font-weight:normal;font-stretch:normal;font-size:40px;font-family:'Latin Modern Roman Caps';-inkscape-font-specification:'Latin Modern Roman Caps, Normal';font-variant-ligatures:normal;font-variant-caps:normal;font-variant-numeric:normal;font-feature-settings:normal;text-align:start;writing-mode:lr-tb;text-anchor:start"
         d="m 247.09,290.79011 c 0,-8.2 -6.4,-14.64 -13.96,-14.64 -7.72,0 -14,6.52 -14,14.64 0,8.08 6.36,14.44 13.96,14.44 7.72,0 14,-6.44 14,-14.44 z m -4.12,-0.6 c 0,10.44 -5.76,14 -9.84,14 -4.32,0 -9.88,-3.76 -9.88,-14 0,-9.76 5.8,-13.04 9.84,-13.04 4.2,0 9.88,3.4 9.88,13.04 z"
         inkscape:connector-curvature="0" />
      <path
         id="path26"
         style="font-style:normal;font-variant:normal;font-weight:normal;font-stretch:normal;font-size:40px;font-family:'Latin Modern Roman Caps';-inkscape-font-specification:'Latin Modern Roman Caps, Normal';font-variant-ligatures:normal;font-variant-caps:normal;font-variant-numeric:normal;font-feature-settings:normal;text-align:start;writing-mode:lr-tb;text-anchor:start"
         d="m 280.30813,278.27011 v -1.24 c -1.24001,0.08 -2.84001,0.12 -3.92001,0.12 l -4.6,-0.12 v 1.24 c 1.16,0 2.16,0.44 2.16,1.52 0,0.48 -0.16,0.72 -0.44,1.16 l -7.12,10.84 -7.72,-11.76 c -0.35999,-0.52 -0.35999,-0.8 -0.35999,-0.8 0,-0.92 1.51999,-0.96 2.71999,-0.96 v -1.24 c -1.4,0.12 -4.4,0.12 -5.92,0.12 l -5.24,-0.12 v 1.24 h 0.76 c 2.2,0 2.96,0.28 3.68,1.36 l 9.04,13.8 v 7.8 c 0,1.44 -0.08,1.88 -3.15999,1.88 h -0.96001 v 1.24 c 1.44,-0.12 4.28,-0.12 5.84,-0.12 1.56,0 4.4,0 5.84,0.12 v -1.24 h -0.91999 c -3.08001,0 -3.20001,-0.4 -3.20001,-1.96 v -7.72 l 8.32,-12.6 c 1.28,-1.96 3.08001,-2.52 5.20001,-2.56 z"
         inkscape:connector-curvature="0" />
    </g>
  </g>
</svg>
